<svg width="89" height="58" viewBox="0 0 89 58" fill="none" xmlns="http://www.w3.org/2000/svg">
<path d="M88.6526 38.2217L88.6408 38.165L88.6276 38.1069L84.0197 18.5129L84.0013 18.4404L83.9829 18.3677C81.0855 7.55266 71.2423 0 60.0446 0H28.956C17.7584 0 7.91499 7.55266 5.0178 18.3677L4.99798 18.4404L4.98077 18.5129L0.373108 38.1068L0.359897 38.1634L0.348077 38.2201C-1.34657 46.2909 3.29029 54.2985 11.1317 56.8489L11.4074 56.9374C13.0135 57.461 14.691 57.7273 16.383 57.7273C22.0616 57.7273 27.3564 54.702 30.2472 49.82L34.1681 44.0241L34.2656 43.8789L34.3541 43.7273C34.4924 43.4861 34.7497 43.3357 35.0252 43.3357H53.976C54.2517 43.3357 54.5089 43.4861 54.6473 43.7273L54.7356 43.8789L54.8333 44.0241L58.754 49.82C61.6447 54.702 66.9395 57.7273 72.6195 57.7273C74.3116 57.7273 75.989 57.461 77.6032 56.9346L77.8697 56.8489C85.7093 54.3001 90.3448 46.2911 88.6526 38.2217ZM76.3657 52.2256L76.098 52.3127C74.9494 52.6871 73.7769 52.8665 72.619 52.8665C68.6825 52.8665 64.9214 50.7894 62.8694 47.2288L58.8602 41.301C57.8541 39.5535 55.9906 38.4749 53.9754 38.4749H35.0247C33.0097 38.4749 31.1462 39.5537 30.14 41.301L26.131 47.2288C24.0791 50.7894 20.3192 52.8665 16.3825 52.8665C15.2246 52.8665 14.0523 52.6871 12.9037 52.3127L12.6346 52.2256C7.171 50.4493 3.92546 44.8405 5.10593 39.22L9.71376 19.6257C12.0465 10.9166 19.9394 4.86076 28.9558 4.86076H60.0445C69.0608 4.86076 76.9538 10.9166 79.2866 19.6257L83.8944 39.22C85.0736 44.8405 81.8295 50.4493 76.3657 52.2256Z" fill="#E3D4FF"/>
<path d="M27.3697 14.2727H21.5393V20.9682H14.8426V26.7959H21.5393V33.4939H27.3697V26.7959H34.0664V20.9682H27.3697V14.2727Z" fill="#E3D4FF"/>
<path d="M63.5725 20.2152C65.6007 20.2152 67.2425 18.5734 67.2425 16.5477C67.2425 14.5193 65.6007 12.8775 63.5725 12.8775C61.5469 12.8775 59.9051 14.5193 59.9051 16.5477C59.9049 18.5734 61.5469 20.2152 63.5725 20.2152Z" fill="#E3D4FF"/>
<path d="M56.2349 20.2152C54.2092 20.2152 52.566 21.8584 52.566 23.8826C52.566 25.911 54.2092 27.5542 56.2349 27.5542C58.2619 27.5542 59.9037 25.911 59.9037 23.8826C59.9037 21.8584 58.2619 20.2152 56.2349 20.2152Z" fill="#E3D4FF"/>
<path d="M63.5725 27.5528C61.5469 27.5528 59.9051 29.1946 59.9051 31.223C59.9051 33.2486 61.5469 34.8904 63.5725 34.8904C65.6007 34.8904 67.2425 33.2486 67.2425 31.223C67.2425 29.1946 65.6005 27.5528 63.5725 27.5528Z" fill="#E3D4FF"/>
<path d="M70.9101 20.2152C68.8845 20.2152 67.2425 21.8584 67.2425 23.8826C67.2425 25.911 68.8845 27.5542 70.9101 27.5542C72.937 27.5542 74.5802 25.911 74.5802 23.8826C74.5802 21.8584 72.937 20.2152 70.9101 20.2152Z" fill="#E3D4FF"/>
</svg>
