<svg width="123" height="123" viewBox="0 0 123 123" fill="none" xmlns="http://www.w3.org/2000/svg">
<g clip-path="url(#clip0_0_110)">
<path opacity="0.1" d="M109.943 70.5594C107.637 68.2532 104.349 67.7919 102.599 69.5423L96.9453 75.1956C95.7271 76.4138 93.4327 76.0944 91.8242 74.486C90.2158 72.8775 89.8965 70.5831 91.1146 69.3649L120.256 40.2234C122.007 38.473 121.545 35.1851 119.239 32.8789C116.933 30.5726 113.645 30.1114 111.895 31.8617L87.9332 55.8231C86.715 57.0413 84.4206 56.7219 82.8121 55.1135C81.2037 53.505 80.8843 51.2106 82.1025 49.9924L82.5874 49.5075C84.3378 47.7571 83.8766 44.4692 81.5703 42.163C79.264 39.8567 75.9762 39.3955 74.2258 41.1459L40.8739 74.4978C39.1235 76.2482 39.5847 79.5361 41.891 81.8423C44.1972 84.1486 47.4851 84.6098 49.2355 82.8594L55.6575 76.4374C56.8757 75.2192 59.1701 75.5386 60.7786 77.147C62.387 78.7555 62.7064 81.0499 61.4882 82.2681L29.8157 113.941C28.0653 115.691 28.5265 118.979 30.8328 121.285C33.139 123.591 36.4269 124.053 38.1773 122.302L64.6696 95.8099C65.8878 94.5917 68.1822 94.9111 69.7907 96.5195C71.3991 98.128 71.7185 100.422 70.5003 101.641L69.2585 102.882C67.5081 104.633 67.9693 107.921 70.2756 110.227C72.5818 112.533 75.8697 112.994 77.6201 111.244L110.96 77.904C112.711 76.1536 112.249 72.8657 109.943 70.5594Z" fill="white"/>
<path opacity="0.1" d="M81.5585 42.163C79.2522 39.8567 75.9643 39.3955 74.214 41.1458L68.5607 46.7991C67.3425 48.0173 65.0481 47.6979 63.4396 46.0895C61.8312 44.481 61.5118 42.1866 62.73 40.9684L91.8716 11.8269C93.6219 10.0765 93.1607 6.78862 90.8544 4.48237C88.5482 2.17612 85.2603 1.71488 83.5099 3.46526L59.5486 27.4384C58.3304 28.6566 56.036 28.3373 54.4275 26.7288C52.8191 25.1204 52.4997 22.8259 53.7179 21.6078L54.2028 21.1229C55.9532 19.3725 55.4919 16.0846 53.1857 13.7783C50.8794 11.4721 47.5915 11.0108 45.8412 12.7612L12.4892 46.1013C10.7389 47.8517 11.2001 51.1396 13.5064 53.4458C15.8126 55.7521 19.1005 56.2133 20.8509 54.463L27.2729 48.0409C28.4911 46.8228 30.7855 47.1421 32.394 48.7505C34.0024 50.359 34.3217 52.6534 33.1036 53.8716L1.43106 85.5441C-0.31932 87.2945 0.141929 90.5824 2.44818 92.8886C4.75443 95.1949 8.04232 95.6561 9.7927 93.9057L36.285 67.4134C37.5032 66.1953 39.7976 66.5146 41.4061 68.123C43.0145 69.7315 43.3339 72.0259 42.1157 73.2441L40.8739 74.4859C39.1235 76.2363 39.5847 79.5242 41.891 81.8305C44.1972 84.1367 47.4851 84.5979 49.2355 82.8476L82.5756 49.5075C84.326 47.7689 83.8647 44.481 81.5585 42.163Z" fill="white"/>
<path d="M24.3043 67.0941C25.5323 67.0941 26.5278 66.0987 26.5278 64.8707C26.5278 63.6427 25.5323 62.6472 24.3043 62.6472C23.0763 62.6472 22.0809 63.6427 22.0809 64.8707C22.0809 66.0987 23.0763 67.0941 24.3043 67.0941Z" fill="white"/>
<path d="M85.556 28.6685C86.9734 28.6685 88.1224 27.5195 88.1224 26.1021C88.1224 24.6847 86.9734 23.5356 85.556 23.5356C84.1385 23.5356 82.9895 24.6847 82.9895 26.1021C82.9895 27.5195 84.1385 28.6685 85.556 28.6685Z" fill="white"/>
<path d="M27.0718 76.6621H24.9075V74.4978C24.9075 74.143 24.6237 73.8591 24.2688 73.8591C23.914 73.8591 23.6302 74.143 23.6302 74.4978V76.6621H21.4777C21.1229 76.6621 20.839 76.946 20.839 77.3008C20.839 77.6556 21.1229 77.9394 21.4777 77.9394H23.642V80.1037C23.642 80.4586 23.9259 80.7424 24.2807 80.7424C24.6355 80.7424 24.9193 80.4586 24.9193 80.1037V77.9394H27.0837C27.4385 77.9394 27.7223 77.6556 27.7223 77.3008C27.7105 76.946 27.4266 76.6621 27.0718 76.6621Z" fill="white"/>
<mask id="mask0_0_110" style="mask-type:luminance" maskUnits="userSpaceOnUse" x="38" y="40" width="47" height="47">
<path d="M38.2365 40.6609H84.4679V86.9988H38.2365V40.6609Z" fill="white"/>
</mask>
<g mask="url(#mask0_0_110)">
<path d="M65.9588 63.7942C67.5081 63.7942 68.7972 62.6352 68.9983 61.1332L71.8131 59.028C72.1561 58.7678 72.227 58.2947 71.9668 57.9517C71.7066 57.6088 71.2336 57.5378 70.8906 57.798L68.9273 59.2645C68.6316 58.3302 67.7683 57.6442 66.7275 57.6442H63.6525C62.3752 57.6442 61.3463 58.685 61.3463 59.9505C61.3463 58.6732 60.3055 57.6442 59.04 57.6442H55.965C54.9242 57.6442 54.0609 58.3302 53.7652 59.2645L51.8019 57.798C51.4589 57.5378 50.974 57.6088 50.7257 57.9517C50.4655 58.2947 50.5364 58.7796 50.8794 59.028L53.6942 61.1332C53.8953 62.6352 55.1726 63.7942 56.7338 63.7942H58.2713C59.9743 63.7942 61.3463 62.4105 61.3463 60.7192C61.3463 62.4223 62.73 63.7942 64.4213 63.7942H65.9588ZM59.7969 60.7192C59.7969 61.5708 59.111 62.2567 58.2594 62.2567H56.7219C55.8704 62.2567 55.1844 61.5708 55.1844 60.7192V59.9505C55.1843 59.8495 55.204 59.7495 55.2426 59.6561C55.2812 59.5628 55.3378 59.478 55.4092 59.4065C55.4807 59.3351 55.5655 59.2785 55.6588 59.2399C55.7521 59.2014 55.8522 59.1816 55.9532 59.1817H59.0282C59.1292 59.1816 59.2292 59.2014 59.3225 59.2399C59.4159 59.2785 59.5007 59.3351 59.5721 59.4065C59.6435 59.478 59.7001 59.5628 59.7387 59.6561C59.7773 59.7495 59.7971 59.8495 59.7969 59.9505V60.7192ZM62.8719 60.7192V59.9505C62.8718 59.8495 62.8915 59.7495 62.9301 59.6561C62.9687 59.5628 63.0253 59.478 63.0967 59.4065C63.1682 59.3351 63.253 59.2785 63.3463 59.2399C63.4396 59.2014 63.5397 59.1816 63.6407 59.1817H66.7157C66.8167 59.1816 66.9167 59.2014 67.01 59.2399C67.1034 59.2785 67.1882 59.3351 67.2596 59.4065C67.331 59.478 67.3876 59.5628 67.4262 59.6561C67.4648 59.7495 67.4846 59.8495 67.4844 59.9505V60.7192C67.4844 61.5708 66.7985 62.2567 65.9469 62.2567H64.4094C63.5697 62.2567 62.8719 61.5708 62.8719 60.7192Z" fill="white"/>
</g>
<mask id="mask1_0_110" style="mask-type:luminance" maskUnits="userSpaceOnUse" x="38" y="40" width="47" height="47">
<path d="M38.2365 40.6609H84.4679V86.9988H38.2365V40.6609Z" fill="white"/>
</mask>
<g mask="url(#mask1_0_110)">
<path d="M84.4088 85.9344L83.6164 82.8002C83.2261 81.6175 80.8843 77.7975 67.4844 77.691V76.8868C67.4844 76.6829 67.4034 76.4874 67.2593 76.3432C67.1151 76.199 66.9196 76.118 66.7157 76.118C66.5118 76.118 66.3163 76.199 66.1721 76.3432C66.0279 76.4874 65.9469 76.6829 65.9469 76.8868V78.4479C65.9469 78.921 65.7932 83.0368 61.3226 83.0368C56.8639 83.0368 56.7101 78.8855 56.6983 78.4125V76.875C56.6983 76.6711 56.6173 76.4755 56.4731 76.3314C56.3289 76.1872 56.1334 76.1062 55.9295 76.1062C55.7256 76.1062 55.5301 76.1872 55.3859 76.3314C55.2418 76.4755 55.1608 76.6711 55.1608 76.875V77.6555C45.1789 77.7383 40.1879 79.3231 39.017 82.8475L38.2483 85.9225C38.1418 86.3365 38.402 86.7504 38.8041 86.8569C39.2181 86.9633 39.632 86.715 39.7385 86.301L40.4954 83.2733C41.3942 80.5886 46.2078 79.2522 55.2199 79.1812C55.5038 81.381 56.994 84.5625 61.3226 84.5625C65.6513 84.5625 67.1533 81.4047 67.4253 79.2049C77.9749 79.2876 81.6413 81.7713 82.1262 83.2024L82.8949 86.2774C82.9777 86.6322 83.297 86.8569 83.64 86.8569C83.6992 86.8569 83.7701 86.845 83.8292 86.8332C84.2668 86.7623 84.5152 86.3483 84.4088 85.9344Z" fill="white"/>
</g>
<path d="M43.5349 44.5402L61.2398 46.8464C61.2753 46.8464 61.3108 46.8582 61.3344 46.8582C61.3699 46.8582 61.4054 46.8582 61.429 46.8464L78.2706 44.6466V47.3195C77.7857 47.8635 76.7331 49.2118 76.7331 50.702C76.7331 52.3932 78.1168 53.0082 79.0393 53.0082C79.9618 53.0082 81.3456 52.3932 81.3456 50.702C81.3456 49.2236 80.293 47.8635 79.8081 47.3195V43.7714C79.8081 43.665 79.7844 43.5704 79.7489 43.4876C79.7371 43.4521 79.7135 43.4284 79.7016 43.4048C79.6662 43.3456 79.6425 43.2983 79.5952 43.251C79.5715 43.2274 79.5361 43.2037 79.5006 43.1801C79.4533 43.1446 79.4178 43.1091 79.3587 43.0855C79.3232 43.0618 79.2759 43.0618 79.2404 43.05C79.2049 43.0381 79.1694 43.0145 79.1339 43.0145L61.429 40.7082C61.3581 40.6964 61.299 40.6964 61.228 40.7082L43.5231 43.0145C43.1446 43.0618 42.8489 43.393 42.8489 43.7832C42.8608 44.1617 43.1446 44.4929 43.5349 44.5402ZM79.8199 50.702C79.8199 51.317 79.406 51.4589 79.0512 51.4707C78.6964 51.4589 78.2824 51.317 78.2824 50.702C78.2824 50.0633 78.6727 49.3537 79.0512 48.8215C79.4178 49.3537 79.8199 50.0633 79.8199 50.702ZM61.3344 42.2457L73.0904 43.7832L61.3344 45.3207L49.5785 43.7832L61.3344 42.2457ZM63.1085 68.6316C63.0848 68.6553 62.5053 69.1875 61.3344 69.1875C60.1872 69.1875 59.5959 68.6671 59.5604 68.6316C59.4895 68.5608 59.4051 68.5048 59.3123 68.467C59.2194 68.4292 59.12 68.4103 59.0198 68.4114C58.9196 68.4125 58.8205 68.4336 58.7286 68.4734C58.6366 68.5133 58.5535 68.5711 58.4841 68.6434C58.1885 68.9391 58.1885 69.4358 58.4841 69.7315C58.5906 69.8379 59.5367 70.725 61.3344 70.725C63.1439 70.725 64.0901 69.8261 64.1847 69.7315C64.4804 69.4358 64.4804 68.9628 64.1847 68.6553C63.9009 68.3478 63.416 68.3478 63.1085 68.6316ZM49.0226 56.2252C48.1238 56.5445 47.4851 57.396 47.4851 58.4013V61.4763C47.4851 62.5526 48.2184 63.4514 49.2118 63.7116C49.6258 64.9298 50.7612 68.2177 51.4116 69.5186C52.6298 71.9668 56.1069 76.1062 61.3344 76.1062C66.5738 76.1062 70.039 71.9668 71.2572 69.5186C71.9077 68.2177 73.0431 64.9298 73.457 63.7116C74.4505 63.4514 75.1956 62.5526 75.1956 61.4763V58.4013C75.1956 57.396 74.5569 56.5445 73.6581 56.2252V55.3263C73.6581 55.1224 73.5771 54.9269 73.4329 54.7827C73.2888 54.6386 73.0932 54.5576 72.8893 54.5576C72.6854 54.5576 72.4899 54.6386 72.3457 54.7827C72.2016 54.9269 72.1206 55.1224 72.1206 55.3263V56.8638C72.1204 56.9648 72.1402 57.0648 72.1788 57.1582C72.2174 57.2515 72.274 57.3363 72.3454 57.4078C72.4168 57.4792 72.5016 57.5358 72.595 57.5744C72.6883 57.6129 72.7883 57.6327 72.8893 57.6326C72.9903 57.6324 73.0904 57.6522 73.1837 57.6908C73.277 57.7293 73.3619 57.786 73.4333 57.8574C73.5047 57.9288 73.5613 58.0136 73.5999 58.1069C73.6385 58.2003 73.6582 58.3003 73.6581 58.4013V61.4763C73.6582 61.5773 73.6385 61.6773 73.5999 61.7707C73.5613 61.864 73.5047 61.9488 73.4333 62.0203C73.3619 62.0917 73.277 62.1483 73.1837 62.1869C73.0904 62.2254 72.9903 62.2452 72.8893 62.2451C72.5582 62.2451 72.2625 62.4579 72.1561 62.7773C72.1442 62.8246 70.6186 67.3661 69.8853 68.8327C69.767 69.0692 66.9522 74.5687 61.3344 74.5687C55.7166 74.5687 52.9018 69.0692 52.7836 68.8327C52.0503 67.3543 50.5364 62.8246 50.5128 62.7773C50.4063 62.4579 50.1107 62.2451 49.7795 62.2451C49.6785 62.2452 49.5785 62.2254 49.4852 62.1869C49.3918 62.1483 49.307 62.0917 49.2356 62.0203C49.1642 61.9488 49.1076 61.864 49.069 61.7707C49.0304 61.6773 49.0106 61.5773 49.0108 61.4763V58.4013C49.0106 58.3003 49.0304 58.2003 49.069 58.1069C49.1076 58.0136 49.1642 57.9288 49.2356 57.8574C49.307 57.786 49.3918 57.7293 49.4852 57.6908C49.5785 57.6522 49.6785 57.6324 49.7795 57.6326C49.8805 57.6327 49.9806 57.6129 50.0739 57.5744C50.1672 57.5358 50.252 57.4792 50.3235 57.4078C50.3949 57.3363 50.4515 57.2515 50.4901 57.1582C50.5287 57.0648 50.5484 56.9648 50.5483 56.8638V55.3263C50.5483 55.1224 50.4673 54.9269 50.3231 54.7827C50.1789 54.6386 49.9834 54.5576 49.7795 54.5576C49.5756 54.5576 49.3801 54.6386 49.2359 54.7827C49.0918 54.9269 49.0108 55.1224 49.0108 55.3263V56.2252H49.0226ZM49.7914 46.0895C49.6904 46.0893 49.5903 46.1091 49.497 46.1477C49.4036 46.1863 49.3188 46.2429 49.2474 46.3143C49.176 46.3857 49.1194 46.4705 49.0808 46.5639C49.0422 46.6572 49.0224 46.7572 49.0226 46.8582V52.2513C49.0226 52.547 49.1882 52.8072 49.4484 52.9373C49.6494 53.0319 54.3092 55.3263 61.3463 55.3263C68.3715 55.3263 73.0431 53.0319 73.2441 52.9373C73.3712 52.873 73.4782 52.775 73.5533 52.654C73.6284 52.533 73.6687 52.3937 73.6699 52.2513V46.8582C73.6699 46.6544 73.5889 46.4588 73.4447 46.3147C73.3006 46.1705 73.105 46.0895 72.9012 46.0895C72.6973 46.0895 72.5017 46.1705 72.3576 46.3147C72.2134 46.4588 72.1324 46.6544 72.1324 46.8582V51.7546C70.8551 52.2986 66.8339 53.7888 61.3581 53.7888C55.8822 53.7888 51.8492 52.2868 50.5838 51.7546V46.8582C50.5601 46.4325 50.2171 46.0895 49.7914 46.0895ZM88.0278 33.5293H35.2797C33.1272 33.5293 31.3768 35.2797 31.3768 37.4322V90.1803C31.3768 92.3328 33.1272 94.0831 35.2797 94.0831H88.0278C90.1803 94.0831 91.9307 92.3328 91.9307 90.1803V37.4322C91.9307 35.2797 90.1803 33.5293 88.0278 33.5293ZM90.1566 90.1803C90.1566 91.3511 89.1987 92.3091 88.0278 92.3091H35.2797C34.1089 92.3091 33.1509 91.3511 33.1509 90.1803V45.5928H33.1745C33.1745 45.5573 33.1627 45.5218 33.1509 45.4863C33.1272 45.2853 33.1272 45.0842 33.1509 44.895C33.1272 44.6821 33.1272 44.4574 33.1627 44.2445C33.1627 44.2327 33.1509 44.209 33.1509 44.1972C33.1272 44.0316 33.1272 43.866 33.139 43.7005V37.4322C33.139 36.2613 34.097 35.3033 35.2679 35.3033H88.016C89.1868 35.3033 90.1448 36.2613 90.1448 37.4322V43.7832C90.1566 43.8897 90.1566 43.9961 90.1448 44.1026V44.6229C90.157 44.8208 90.145 45.0193 90.1093 45.2143C90.1212 45.2498 90.1212 45.2853 90.133 45.3207C90.1566 45.4863 90.1566 45.6519 90.1448 45.8175L90.1566 90.1803Z" fill="white"/>
</g>
<defs>
<clipPath id="clip0_0_110">
<rect width="122.799" height="123" fill="white"/>
</clipPath>
</defs>
</svg>
