<svg width="123" height="123" viewBox="0 0 123 123" fill="none" xmlns="http://www.w3.org/2000/svg">
<g clip-path="url(#clip0_0_129)">
<path opacity="0.1" d="M110.122 70.5545C107.812 68.248 104.518 67.7867 102.765 69.5373L97.1015 75.1911C95.8812 76.4094 93.5828 76.09 91.9716 74.4814C90.3603 72.8728 90.0405 70.5781 91.2607 69.3598L120.453 40.2155C122.206 38.4649 121.744 35.1767 119.434 32.8703C117.124 30.5638 113.83 30.1025 112.077 31.8531L88.0738 55.8167C86.8535 57.035 84.5551 56.7156 82.9438 55.107C81.3326 53.4984 81.0127 51.2038 82.233 49.9855L82.7187 49.5005C84.4722 47.75 84.0101 44.4618 81.6999 42.1553C79.3896 39.8488 76.096 39.3875 74.3426 41.1381L40.9329 74.4932C39.1794 76.2438 39.6415 79.532 41.9517 81.8384C44.262 84.1449 47.5556 84.6062 49.309 82.8557L55.7421 76.433C56.9624 75.2147 59.2608 75.5341 60.8721 77.1427C62.4833 78.7513 62.8032 81.046 61.5829 82.2643L29.8555 113.94C28.1021 115.69 28.5641 118.979 30.8744 121.285C33.1846 123.591 36.4782 124.053 38.2316 122.302L64.7699 95.8074C65.9902 94.5891 68.2886 94.9084 69.8998 96.5171C71.5111 98.1257 71.831 100.42 70.6107 101.639L69.3667 102.881C67.6133 104.631 68.0753 107.919 70.3856 110.226C72.6958 112.532 75.9894 112.994 77.7428 111.243L111.141 77.8997C112.894 76.1491 112.432 72.8609 110.122 70.5545Z" fill="white"/>
<path opacity="0.1" d="M81.688 42.1553C79.3778 39.8488 76.0842 39.3875 74.3308 41.1381L68.6677 46.7919C67.4474 48.0102 65.149 47.6908 63.5378 46.0822C61.9265 44.4736 61.6066 42.179 62.8269 40.9607L92.019 11.8163C93.7724 10.0658 93.3104 6.77757 91.0001 4.4711C88.6899 2.16463 85.3963 1.70333 83.6428 3.45389L59.64 27.4294C58.4197 28.6477 56.1213 28.3283 54.51 26.7197C52.8988 25.1111 52.5789 22.8164 53.7992 21.5981L54.2849 21.1132C56.0383 19.3626 55.5763 16.0744 53.266 13.768C50.9558 11.4615 47.6622 11.0002 45.9088 12.7507L12.499 46.094C10.7456 47.8446 11.2077 51.1328 13.5179 53.4393C15.8282 55.7457 19.1218 56.207 20.8752 54.4565L27.3083 48.0338C28.5286 46.8156 30.827 47.1349 32.4383 48.7435C34.0495 50.3521 34.3694 52.6468 33.1491 53.8651L1.42169 85.5406C-0.331727 87.2912 0.130321 90.5794 2.44057 92.8858C4.75082 95.1923 8.0444 95.6536 9.79782 93.9031L36.3361 67.4082C37.5564 66.1899 39.8548 66.5093 41.466 68.1179C43.0773 69.7265 43.3971 72.0211 42.1768 73.2394L40.9329 74.4814C39.1794 76.2319 39.6415 79.5201 41.9517 81.8266C44.262 84.1331 47.5556 84.5944 49.309 82.8438L82.7069 49.5005C84.4603 47.7618 83.9983 44.4736 81.688 42.1553Z" fill="white"/>
<path d="M24.3346 67.089C25.5647 67.089 26.5619 66.0934 26.5619 64.8653C26.5619 63.6372 25.5647 62.6416 24.3346 62.6416C23.1045 62.6416 22.1073 63.6372 22.1073 64.8653C22.1073 66.0934 23.1045 67.089 24.3346 67.089Z" fill="white"/>
<path d="M85.6924 28.6595C87.1123 28.6595 88.2633 27.5104 88.2633 26.0928C88.2633 24.6753 87.1123 23.5261 85.6924 23.5261C84.2726 23.5261 83.1216 24.6753 83.1216 26.0928C83.1216 27.5104 84.2726 28.6595 85.6924 28.6595Z" fill="white"/>
<path d="M27.1069 76.6577H24.9388V74.4932C24.9388 74.1383 24.6545 73.8544 24.2991 73.8544C23.9437 73.8544 23.6593 74.1383 23.6593 74.4932V76.6577H21.5031C21.1477 76.6577 20.8633 76.9416 20.8633 77.2964C20.8633 77.6512 21.1477 77.9351 21.5031 77.9351H23.6712V80.0997C23.6712 80.4545 23.9555 80.7384 24.3109 80.7384C24.6663 80.7384 24.9507 80.4545 24.9507 80.0997V77.9351H27.1188C27.4742 77.9351 27.7585 77.6512 27.7585 77.2964C27.7467 76.9416 27.4623 76.6577 27.1069 76.6577ZM88.1686 33.5208H35.329C33.1728 33.5208 31.4194 35.2713 31.4194 37.424V90.1772C31.4194 92.3299 33.1728 94.0804 35.329 94.0804H88.1686C90.3248 94.0804 92.0782 92.3299 92.0782 90.1772V37.424C92.0782 35.2713 90.3248 33.5208 88.1686 33.5208ZM90.3011 90.1772C90.3011 91.3481 89.3415 92.3062 88.1686 92.3062H35.329C34.1561 92.3062 33.1965 91.3481 33.1965 90.1772V45.5854H33.2202C33.2202 45.5499 33.2083 45.5144 33.1965 45.4789C33.1728 45.2778 33.1728 45.0768 33.1965 44.8875C33.1728 44.6746 33.1728 44.4499 33.2083 44.237C33.2083 44.2251 33.1965 44.2015 33.1965 44.1897C33.1728 44.0241 33.1728 43.8585 33.1846 43.6929V37.424C33.1846 36.253 34.1443 35.295 35.3172 35.295H88.1567C89.3296 35.295 90.2892 36.253 90.2892 37.424V43.7757C90.3011 43.8821 90.3011 43.9886 90.2892 44.095V44.6155C90.3014 44.8133 90.2895 45.0119 90.2537 45.2069C90.2655 45.2424 90.2656 45.2778 90.2774 45.3133C90.3011 45.4789 90.3011 45.6445 90.2892 45.8101L90.3011 90.1772ZM43.1246 80.7029C43.2313 80.7029 43.326 80.6792 43.4327 80.6437C45.8614 79.591 49.9606 79.0351 55.6237 79.0115L56.1687 80.1115C56.3582 80.49 56.8203 80.6437 57.1875 80.4545C57.5667 80.2652 57.7207 79.8158 57.5311 79.4373L56.7729 77.9115C56.6426 77.6512 56.3819 77.4857 56.0857 77.4857C49.8777 77.4857 45.5415 78.0652 42.8166 79.248C42.4256 79.4136 42.2598 79.8631 42.4256 80.2534C42.4873 80.3869 42.5858 80.5001 42.7096 80.5797C42.8334 80.6593 42.9774 80.702 43.1246 80.7029ZM82.7424 82.0395H81.2141V78.2426C81.2141 78.0416 81.1312 77.8523 80.989 77.7104L76.4278 73.1448C76.5699 72.8491 76.6529 72.5179 76.6529 72.163C76.6529 70.9093 75.634 69.8802 74.3663 69.8802C73.1105 69.8802 72.0798 70.8974 72.0798 72.163C72.0798 73.4168 73.0986 74.4458 74.3663 74.4458C74.7217 74.4458 75.0416 74.363 75.3496 74.2211L79.6976 78.562V82.0513H40.1035C39.2624 82.0513 38.5752 82.7373 38.5752 83.5771V85.8599C38.5752 86.2739 38.9188 86.6169 39.3335 86.6169C39.7481 86.6169 40.0917 86.2739 40.0917 85.8599V83.5771H82.7306V85.8599C82.7306 86.2739 83.0742 86.6169 83.4888 86.6169C83.5885 86.6172 83.6872 86.5979 83.7794 86.5599C83.8715 86.522 83.9552 86.4662 84.0257 86.3959C84.0961 86.3255 84.152 86.242 84.19 86.15C84.228 86.058 84.2474 85.9594 84.2471 85.8599V83.5771C84.2708 82.7255 83.5836 82.0395 82.7424 82.0395ZM74.3782 72.92C73.9635 72.92 73.6199 72.577 73.6199 72.163C73.6199 71.749 73.9635 71.406 74.3782 71.406C74.7928 71.406 75.1364 71.749 75.1364 72.163C75.1364 72.577 74.7928 72.92 74.3782 72.92ZM49.463 63.7296C50.0198 65.1726 51.8562 69.8211 53.1831 71.82L53.3016 71.9974C54.2849 73.4759 55.9199 75.9598 61.4289 75.9598C66.938 75.9598 68.5729 73.4878 69.5563 71.9974L69.6747 71.82C71.0016 69.8211 72.838 65.1726 73.3948 63.7296C74.39 63.4812 75.1245 62.5823 75.1245 61.5178V58.478C75.1245 57.4844 74.4848 56.6446 73.5962 56.3253V52.3983C73.5962 49.394 72.0087 43.8585 66.156 43.3144C66.1442 42.9595 66.0257 42.6638 65.8954 42.4509C65.149 41.2445 63.0402 40.9843 61.4171 40.9843C47.8636 40.9843 47.7096 53.7822 47.7096 53.9123C47.7096 54.3263 48.0532 54.6693 48.4678 54.6693C48.8825 54.6693 49.2261 54.3263 49.2261 53.9123C49.2261 53.451 49.4038 42.5101 61.4052 42.5101C63.5614 42.5101 64.4263 42.9714 64.5922 43.2552C64.6159 43.2907 64.6751 43.3972 64.5329 43.6929C64.4145 43.9294 64.4263 44.2133 64.5685 44.4381C64.7107 44.6628 64.9476 44.7929 65.2201 44.7929C71.9731 44.7929 72.0679 52.0908 72.0679 52.3983V56.964C72.0679 57.378 72.4115 57.721 72.8261 57.721C73.2408 57.721 73.5844 58.064 73.5844 58.478V61.5178C73.5844 61.9318 73.2408 62.2748 72.8261 62.2748C72.5063 62.2748 72.2219 62.4758 72.1153 62.7715C72.0916 62.8307 69.8406 68.792 68.3834 70.9802L68.253 71.1695C67.3408 72.5533 66.085 74.4458 61.3934 74.4458C56.7018 74.4458 55.446 72.5533 54.5337 71.1695L54.4034 70.9802C52.9462 68.8039 50.6951 62.8307 50.6714 62.7715C50.5648 62.4758 50.2805 62.2748 49.9606 62.2748C49.5459 62.2748 49.2024 61.9318 49.2024 61.5178V58.478C49.2024 58.2769 49.2853 58.0876 49.4156 57.9457C49.6881 58.5608 50.2568 59.1285 51.2046 59.2113L53.811 61.1629C54.0124 62.6414 55.2801 63.7888 56.8203 63.7888H58.3486C60.0309 63.7888 61.3934 62.4285 61.3934 60.7489C61.3934 62.4285 62.7558 63.7888 64.4382 63.7888H65.9665C67.5066 63.7888 68.7625 62.6414 68.9757 61.1629L71.7599 59.0812C72.0916 58.8328 72.1627 58.3479 71.9139 58.0167C71.6651 57.6855 71.1793 57.6145 70.8476 57.8629L68.9046 59.3178C68.6203 58.3952 67.7554 57.7091 66.7366 57.7091H63.6918C62.4359 57.7091 61.4052 58.7263 61.4052 59.992C61.4052 58.7382 60.3745 57.7091 59.1187 57.7091H56.0739C55.055 57.7091 54.1901 58.3833 53.9058 59.3178L52.4486 58.2296C53.0528 56.7865 53.5859 54.6457 53.7399 53.1435C56.145 53.0962 63.0876 52.8123 66.1679 50.8843C66.8669 53.5811 69.1179 55.8521 69.2245 55.9704C69.3679 56.1124 69.5616 56.1921 69.7636 56.1921C69.9655 56.1921 70.1593 56.1124 70.3026 55.9704C70.4449 55.8273 70.5247 55.6338 70.5247 55.4322C70.5247 55.2306 70.4449 55.0372 70.3026 54.8941C70.2789 54.8704 67.483 52.0435 67.483 49.3467C67.4833 49.1805 67.4291 49.0187 67.3285 48.8862C67.2279 48.7538 67.0865 48.6579 66.9261 48.6134C66.5944 48.5187 66.2508 48.6607 66.0731 48.9564C64.9594 50.8015 57.7681 51.6295 53.0172 51.6295C52.6026 51.6295 52.259 51.9725 52.259 52.3865C52.259 53.6166 51.6785 56.0887 51.0506 57.6027C50.8136 57.4607 50.7425 57.1887 50.7307 56.9521C50.7307 56.5382 50.3871 56.1951 49.9724 56.1951C48.7166 56.1951 47.6859 57.2124 47.6859 58.478V61.5178C47.7214 62.5941 48.4678 63.4931 49.463 63.7296ZM62.9572 60.0038C62.9572 59.5898 63.3008 59.2468 63.7155 59.2468H66.7603C67.1749 59.2468 67.5185 59.5898 67.5185 60.0038V60.7608C67.5185 61.6006 66.8313 62.2866 65.9902 62.2866H64.4737C63.6325 62.2866 62.9454 61.6006 62.9454 60.7608V60.0038H62.9572ZM55.3393 60.0038C55.3393 59.5898 55.6829 59.2468 56.0976 59.2468H59.1424C59.557 59.2468 59.9006 59.5898 59.9006 60.0038V60.7608C59.9006 61.6006 59.2134 62.2866 58.3723 62.2866H56.844C56.0028 62.2866 55.3156 61.6006 55.3156 60.7608V60.0038H55.3393ZM65.2319 68.3662C65.2319 67.9522 64.8884 67.6092 64.4737 67.6092C64.4619 67.6092 63.0994 67.5974 61.7606 66.9232C61.5474 66.8167 61.2986 66.8167 61.0853 66.9232C59.7584 67.5856 58.396 67.6092 58.3841 67.6092C57.9695 67.6092 57.6259 67.9522 57.6259 68.3662C57.6259 68.7802 57.9695 69.1232 58.3841 69.1232C58.4434 69.1232 59.8887 69.1114 61.4289 68.4372C62.9691 69.1114 64.4145 69.1232 64.4737 69.1232C64.8884 69.1232 65.2319 68.7802 65.2319 68.3662ZM66.7603 77.5211C66.4759 77.5211 66.2153 77.6867 66.0849 77.9351L65.3267 79.4255C65.1372 79.804 65.2793 80.2534 65.6584 80.4427C65.7651 80.5018 65.8835 80.5255 66.002 80.5255C66.2745 80.5255 66.547 80.3717 66.6773 80.1115L67.2223 79.0351C71.3808 79.047 74.7336 79.3545 77.186 79.9577C77.6007 80.0642 78.0035 79.804 78.1101 79.4018C78.2167 78.9996 77.9561 78.5857 77.5533 78.4792C74.8876 77.8287 71.2741 77.4857 66.7603 77.5211ZM60.6707 78.2426V79.7685C60.6707 80.1824 61.0143 80.5255 61.4289 80.5255C61.8436 80.5255 62.1872 80.1824 62.1872 79.7685V78.2426C62.1872 77.8287 61.8436 77.4857 61.4289 77.4857C61.3293 77.4853 61.2305 77.5047 61.1384 77.5426C61.0462 77.5806 60.9625 77.6363 60.8921 77.7067C60.8216 77.777 60.7658 77.8606 60.7278 77.9526C60.6898 78.0446 60.6704 78.1432 60.6707 78.2426ZM60.6707 69.8802C60.256 69.8802 59.9124 70.2232 59.9124 70.6372C59.9124 71.0512 60.256 71.3942 60.6707 71.3942H62.199C62.2987 71.3945 62.3974 71.3751 62.4895 71.3372C62.5817 71.2993 62.6654 71.2435 62.7358 71.1732C62.8063 71.1028 62.8622 71.0193 62.9002 70.9273C62.9381 70.8353 62.9575 70.7367 62.9572 70.6372C62.9572 70.2232 62.6137 69.8802 62.199 69.8802H60.6707Z" fill="white"/>
</g>
<defs>
<clipPath id="clip0_0_129">
<rect width="123" height="123" fill="white"/>
</clipPath>
</defs>
</svg>
