<svg width="73" height="62" viewBox="0 0 73 62" fill="none" xmlns="http://www.w3.org/2000/svg">
<path d="M7.10692 43.6577H4.93883V41.4932C4.93883 41.1383 4.6545 40.8544 4.29907 40.8544C3.94365 40.8544 3.65931 41.1383 3.65931 41.4932V43.6577H1.50308C1.14766 43.6577 0.863319 43.9416 0.863319 44.2964C0.863319 44.6512 1.14766 44.9351 1.50308 44.9351H3.67116V47.0997C3.67116 47.4545 3.9555 47.7384 4.31092 47.7384C4.66634 47.7384 4.95068 47.4545 4.95068 47.0997V44.9351H7.11876C7.47419 44.9351 7.75852 44.6512 7.75852 44.2964C7.74668 43.9416 7.46234 43.6577 7.10692 43.6577ZM68.1686 0.520752H15.329C13.1728 0.520752 11.4194 2.2713 11.4194 4.42401V57.1772C11.4194 59.3299 13.1728 61.0804 15.329 61.0804H68.1686C70.3248 61.0804 72.0782 59.3299 72.0782 57.1772V4.42401C72.0782 2.2713 70.3248 0.520752 68.1686 0.520752ZM70.3011 57.1772C70.3011 58.3481 69.3415 59.3062 68.1686 59.3062H15.329C14.1561 59.3062 13.1965 58.3481 13.1965 57.1772V12.5854H13.2202C13.2202 12.5499 13.2083 12.5144 13.1965 12.4789C13.1728 12.2778 13.1728 12.0768 13.1965 11.8875C13.1728 11.6746 13.1728 11.4499 13.2083 11.237C13.2083 11.2251 13.1965 11.2015 13.1965 11.1897C13.1728 11.0241 13.1728 10.8585 13.1846 10.6929V4.42401C13.1846 3.25303 14.1443 2.29496 15.3172 2.29496H68.1567C69.3296 2.29496 70.2892 3.25303 70.2892 4.42401V10.7757C70.3011 10.8821 70.3011 10.9886 70.2892 11.095V11.6155C70.3014 11.8133 70.2895 12.0119 70.2537 12.2069C70.2655 12.2424 70.2656 12.2778 70.2774 12.3133C70.3011 12.4789 70.3011 12.6445 70.2892 12.8101L70.3011 57.1772ZM23.1246 47.7029C23.2313 47.7029 23.326 47.6792 23.4327 47.6437C25.8614 46.591 29.9606 46.0351 35.6237 46.0115L36.1687 47.1115C36.3582 47.49 36.8203 47.6437 37.1875 47.4545C37.5667 47.2652 37.7207 46.8158 37.5311 46.4373L36.7729 44.9115C36.6426 44.6512 36.3819 44.4857 36.0857 44.4857C29.8777 44.4857 25.5415 45.0652 22.8166 46.248C22.4256 46.4136 22.2598 46.8631 22.4256 47.2534C22.4873 47.3869 22.5858 47.5001 22.7096 47.5797C22.8334 47.6593 22.9774 47.702 23.1246 47.7029ZM62.7424 49.0395H61.2141V45.2426C61.2141 45.0416 61.1312 44.8523 60.989 44.7104L56.4278 40.1448C56.5699 39.8491 56.6529 39.5179 56.6529 39.163C56.6529 37.9093 55.634 36.8802 54.3663 36.8802C53.1105 36.8802 52.0798 37.8974 52.0798 39.163C52.0798 40.4168 53.0986 41.4458 54.3663 41.4458C54.7217 41.4458 55.0416 41.363 55.3496 41.2211L59.6976 45.562V49.0513H20.1035C19.2624 49.0513 18.5752 49.7373 18.5752 50.5771V52.8599C18.5752 53.2739 18.9188 53.6169 19.3335 53.6169C19.7481 53.6169 20.0917 53.2739 20.0917 52.8599V50.5771H62.7306V52.8599C62.7306 53.2739 63.0742 53.6169 63.4888 53.6169C63.5885 53.6172 63.6872 53.5979 63.7794 53.5599C63.8715 53.522 63.9552 53.4662 64.0257 53.3959C64.0961 53.3255 64.152 53.242 64.19 53.15C64.228 53.058 64.2474 52.9594 64.2471 52.8599V50.5771C64.2708 49.7255 63.5836 49.0395 62.7424 49.0395ZM54.3782 39.92C53.9635 39.92 53.6199 39.577 53.6199 39.163C53.6199 38.749 53.9635 38.406 54.3782 38.406C54.7928 38.406 55.1364 38.749 55.1364 39.163C55.1364 39.577 54.7928 39.92 54.3782 39.92ZM29.463 30.7296C30.0198 32.1726 31.8562 36.8211 33.1831 38.82L33.3016 38.9974C34.2849 40.4759 35.9199 42.9598 41.4289 42.9598C46.938 42.9598 48.5729 40.4878 49.5563 38.9974L49.6747 38.82C51.0016 36.8211 52.838 32.1726 53.3948 30.7296C54.39 30.4812 55.1245 29.5823 55.1245 28.5178V25.478C55.1245 24.4844 54.4848 23.6446 53.5962 23.3253V19.3983C53.5962 16.394 52.0087 10.8585 46.156 10.3144C46.1442 9.95954 46.0257 9.66384 45.8954 9.45094C45.149 8.24448 43.0402 7.98426 41.4171 7.98426C27.8636 7.98426 27.7096 20.7822 27.7096 20.9123C27.7096 21.3263 28.0532 21.6693 28.4678 21.6693C28.8825 21.6693 29.2261 21.3263 29.2261 20.9123C29.2261 20.451 29.4038 9.51008 41.4052 9.51008C43.5614 9.51008 44.4263 9.97137 44.5922 10.2552C44.6159 10.2907 44.6751 10.3972 44.5329 10.6929C44.4145 10.9294 44.4263 11.2133 44.5685 11.4381C44.7107 11.6628 44.9476 11.7929 45.2201 11.7929C51.9731 11.7929 52.0679 19.0908 52.0679 19.3983V23.964C52.0679 24.378 52.4115 24.721 52.8261 24.721C53.2408 24.721 53.5844 25.064 53.5844 25.478V28.5178C53.5844 28.9318 53.2408 29.2748 52.8261 29.2748C52.5063 29.2748 52.2219 29.4758 52.1153 29.7715C52.0916 29.8307 49.8406 35.792 48.3834 37.9802L48.253 38.1695C47.3408 39.5533 46.085 41.4458 41.3934 41.4458C36.7018 41.4458 35.446 39.5533 34.5337 38.1695L34.4034 37.9802C32.9462 35.8039 30.6951 29.8307 30.6714 29.7715C30.5648 29.4758 30.2805 29.2748 29.9606 29.2748C29.5459 29.2748 29.2024 28.9318 29.2024 28.5178V25.478C29.2024 25.2769 29.2853 25.0876 29.4156 24.9457C29.6881 25.5608 30.2568 26.1285 31.2046 26.2113L33.811 28.1629C34.0124 29.6414 35.2801 30.7888 36.8203 30.7888H38.3486C40.0309 30.7888 41.3934 29.4285 41.3934 27.7489C41.3934 29.4285 42.7558 30.7888 44.4382 30.7888H45.9665C47.5066 30.7888 48.7625 29.6414 48.9757 28.1629L51.7599 26.0812C52.0916 25.8328 52.1627 25.3479 51.9139 25.0167C51.6651 24.6855 51.1793 24.6145 50.8476 24.8629L48.9046 26.3178C48.6203 25.3952 47.7554 24.7091 46.7366 24.7091H43.6918C42.4359 24.7091 41.4052 25.7263 41.4052 26.992C41.4052 25.7382 40.3745 24.7091 39.1187 24.7091H36.0739C35.055 24.7091 34.1901 25.3833 33.9058 26.3178L32.4486 25.2296C33.0528 23.7865 33.5859 21.6457 33.7399 20.1435C36.145 20.0962 43.0876 19.8123 46.1679 17.8843C46.8669 20.5811 49.1179 22.8521 49.2245 22.9704C49.3679 23.1124 49.5616 23.1921 49.7636 23.1921C49.9655 23.1921 50.1593 23.1124 50.3026 22.9704C50.4449 22.8273 50.5247 22.6338 50.5247 22.4322C50.5247 22.2306 50.4449 22.0372 50.3026 21.8941C50.2789 21.8704 47.483 19.0435 47.483 16.3467C47.4833 16.1805 47.4291 16.0187 47.3285 15.8862C47.2279 15.7538 47.0865 15.6579 46.9261 15.6134C46.5944 15.5187 46.2508 15.6607 46.0731 15.9564C44.9594 17.8015 37.7681 18.6295 33.0172 18.6295C32.6026 18.6295 32.259 18.9725 32.259 19.3865C32.259 20.6166 31.6785 23.0887 31.0506 24.6027C30.8136 24.4607 30.7425 24.1887 30.7307 23.9521C30.7307 23.5382 30.3871 23.1951 29.9724 23.1951C28.7166 23.1951 27.6859 24.2124 27.6859 25.478V28.5178C27.7214 29.5941 28.4678 30.4931 29.463 30.7296ZM42.9572 27.0038C42.9572 26.5898 43.3008 26.2468 43.7155 26.2468H46.7603C47.1749 26.2468 47.5185 26.5898 47.5185 27.0038V27.7608C47.5185 28.6006 46.8313 29.2866 45.9902 29.2866H44.4737C43.6325 29.2866 42.9454 28.6006 42.9454 27.7608V27.0038H42.9572ZM35.3393 27.0038C35.3393 26.5898 35.6829 26.2468 36.0976 26.2468H39.1424C39.557 26.2468 39.9006 26.5898 39.9006 27.0038V27.7608C39.9006 28.6006 39.2134 29.2866 38.3723 29.2866H36.844C36.0028 29.2866 35.3156 28.6006 35.3156 27.7608V27.0038H35.3393ZM45.2319 35.3662C45.2319 34.9522 44.8884 34.6092 44.4737 34.6092C44.4619 34.6092 43.0994 34.5974 41.7606 33.9232C41.5474 33.8167 41.2986 33.8167 41.0853 33.9232C39.7584 34.5856 38.396 34.6092 38.3841 34.6092C37.9695 34.6092 37.6259 34.9522 37.6259 35.3662C37.6259 35.7802 37.9695 36.1232 38.3841 36.1232C38.4434 36.1232 39.8887 36.1114 41.4289 35.4372C42.9691 36.1114 44.4145 36.1232 44.4737 36.1232C44.8884 36.1232 45.2319 35.7802 45.2319 35.3662ZM46.7603 44.5211C46.4759 44.5211 46.2153 44.6867 46.0849 44.9351L45.3267 46.4255C45.1372 46.804 45.2793 47.2534 45.6584 47.4427C45.7651 47.5018 45.8835 47.5255 46.002 47.5255C46.2745 47.5255 46.547 47.3717 46.6773 47.1115L47.2223 46.0351C51.3808 46.047 54.7336 46.3545 57.186 46.9577C57.6007 47.0642 58.0035 46.804 58.1101 46.4018C58.2167 45.9996 57.9561 45.5857 57.5533 45.4792C54.8876 44.8287 51.2741 44.4857 46.7603 44.5211ZM40.6707 45.2426V46.7685C40.6707 47.1824 41.0143 47.5255 41.4289 47.5255C41.8436 47.5255 42.1872 47.1824 42.1872 46.7685V45.2426C42.1872 44.8287 41.8436 44.4857 41.4289 44.4857C41.3293 44.4853 41.2305 44.5047 41.1384 44.5426C41.0462 44.5806 40.9625 44.6363 40.8921 44.7067C40.8216 44.777 40.7658 44.8606 40.7278 44.9526C40.6898 45.0446 40.6704 45.1432 40.6707 45.2426ZM40.6707 36.8802C40.256 36.8802 39.9124 37.2232 39.9124 37.6372C39.9124 38.0512 40.256 38.3942 40.6707 38.3942H42.199C42.2987 38.3945 42.3974 38.3751 42.4895 38.3372C42.5817 38.2993 42.6654 38.2435 42.7358 38.1732C42.8063 38.1028 42.8622 38.0193 42.9002 37.9273C42.9381 37.8353 42.9575 37.7367 42.9572 37.6372C42.9572 37.2232 42.6137 36.8802 42.199 36.8802H40.6707Z" fill="white"/>
</svg>
