<svg width="66" height="66" viewBox="0 0 66 66" fill="none" xmlns="http://www.w3.org/2000/svg">
<g filter="url(#filter0_d_73_2754)">
<circle cx="33" cy="33" r="28" fill="#D7D5FF"/>
</g>
<path d="M32.9209 26.836C29.2172 26.836 26.1484 29.8519 26.1484 33.6085C26.1484 37.3651 29.1643 40.381 32.9209 40.381C36.6775 40.381 39.6934 37.3122 39.6934 33.6085C39.6934 29.9048 36.6246 26.836 32.9209 26.836ZM32.9209 37.9471C30.54 37.9471 28.5823 35.9894 28.5823 33.6085C28.5823 31.2275 30.54 29.2699 32.9209 29.2699C35.3019 29.2699 37.2596 31.2275 37.2596 33.6085C37.2596 35.9894 35.3019 37.9471 32.9209 37.9471Z" fill="#8E8EAA"/>
<path d="M39.9572 28.2116C40.8047 28.2116 41.4916 27.5246 41.4916 26.6772C41.4916 25.8298 40.8047 25.1428 39.9572 25.1428C39.1098 25.1428 38.4229 25.8298 38.4229 26.6772C38.4229 27.5246 39.1098 28.2116 39.9572 28.2116Z" fill="#8E8EAA"/>
<path d="M43.9258 22.709C42.5501 21.2804 40.5925 20.5397 38.3703 20.5397H27.4708C22.8676 20.5397 19.7988 23.6085 19.7988 28.2116V39.0582C19.7988 41.3333 20.5396 43.291 22.0211 44.7196C23.4496 46.0952 25.3544 46.7831 27.5237 46.7831H38.3173C40.5925 46.7831 42.4972 46.0423 43.8729 44.7196C45.3015 43.3439 46.0422 41.3862 46.0422 39.1111V28.2116C46.0422 25.9894 45.3015 24.0846 43.9258 22.709ZM43.7142 39.1111C43.7142 40.7513 43.1322 42.0741 42.1798 42.9735C41.2274 43.873 39.9046 44.3492 38.3173 44.3492H27.5237C25.9364 44.3492 24.6136 43.873 23.6613 42.9735C22.7089 42.0212 22.2327 40.6984 22.2327 39.0582V28.2116C22.2327 26.6243 22.7089 25.3016 23.6613 24.3492C24.5607 23.4497 25.9364 22.9735 27.5237 22.9735H38.4232C40.0105 22.9735 41.3332 23.4497 42.2856 24.4021C43.1851 25.3545 43.7142 26.6772 43.7142 28.2116V39.1111Z" fill="#8E8EAA"/>
<defs>
<filter id="filter0_d_73_2754" x="0" y="0" width="66" height="66" filterUnits="userSpaceOnUse" color-interpolation-filters="sRGB">
<feFlood flood-opacity="0" result="BackgroundImageFix"/>
<feColorMatrix in="SourceAlpha" type="matrix" values="0 0 0 0 0 0 0 0 0 0 0 0 0 0 0 0 0 0 127 0" result="hardAlpha"/>
<feOffset/>
<feGaussianBlur stdDeviation="2.5"/>
<feComposite in2="hardAlpha" operator="out"/>
<feColorMatrix type="matrix" values="0 0 0 0 0.0705882 0 0 0 0 0.0705882 0 0 0 0 0.258824 0 0 0 0.4 0"/>
<feBlend mode="normal" in2="BackgroundImageFix" result="effect1_dropShadow_73_2754"/>
<feBlend mode="normal" in="SourceGraphic" in2="effect1_dropShadow_73_2754" result="shape"/>
</filter>
</defs>
</svg>
