<svg width="26" height="26" viewBox="0 0 26 26" fill="none" xmlns="http://www.w3.org/2000/svg">
<path d="M4.6 17C2.37836 17.8471 1 19.0273 1 20.3329C1 22.9105 6.37259 25 13 25C19.6275 25 25 22.9105 25 20.3329C25 19.0273 23.6216 17.8471 21.4 17M13 9H13.0133M21 9C21 14.4183 15 17 13 21C11 17 5 14.4183 5 9C5 4.58172 8.58172 1 13 1C17.4183 1 21 4.58172 21 9ZM14.3333 9C14.3333 9.73637 13.7364 10.3333 13 10.3333C12.2636 10.3333 11.6667 9.73637 11.6667 9C11.6667 8.26363 12.2636 7.66667 13 7.66667C13.7364 7.66667 14.3333 8.26363 14.3333 9Z" stroke="#F9F6FF" stroke-opacity="0.8" stroke-width="2" stroke-linecap="round" stroke-linejoin="round"/>
</svg>
