<svg width="260" height="522" viewBox="0 0 260 522" fill="none" xmlns="http://www.w3.org/2000/svg">
<g filter="url(#filter0_d_0_16)">
<path d="M270 335H70C53.4315 335 40 321.569 40 305V90C40 73.4315 53.4315 60 70 60H270V335Z" fill="url(#paint0_linear_0_16)" fill-opacity="0.8" shape-rendering="crispEdges"/>
</g>
<path d="M399 241.246L222.042 243.72C210.998 243.875 201.919 235.046 201.765 224.002L200.167 109.726C200.012 98.6812 208.841 89.6025 219.885 89.4481L396.843 86.9739L399 241.246Z" fill="url(#paint1_linear_0_16)" fill-opacity="0.7"/>
<g filter="url(#filter1_d_0_16)">
<path d="M480 482H204C187.431 482 174 468.569 174 452V237C174 220.431 187.431 207 204 207H480V482Z" fill="url(#paint2_linear_0_16)" fill-opacity="0.5" shape-rendering="crispEdges"/>
</g>
<defs>
<filter id="filter0_d_0_16" x="0" y="0" width="330" height="375" filterUnits="userSpaceOnUse" color-interpolation-filters="sRGB">
<feFlood flood-opacity="0" result="BackgroundImageFix"/>
<feColorMatrix in="SourceAlpha" type="matrix" values="0 0 0 0 0 0 0 0 0 0 0 0 0 0 0 0 0 0 127 0" result="hardAlpha"/>
<feOffset dx="10" dy="-10"/>
<feGaussianBlur stdDeviation="25"/>
<feComposite in2="hardAlpha" operator="out"/>
<feColorMatrix type="matrix" values="0 0 0 0 0 0 0 0 0 0 0 0 0 0 0 0 0 0 0.15 0"/>
<feBlend mode="normal" in2="BackgroundImageFix" result="effect1_dropShadow_0_16"/>
<feBlend mode="normal" in="SourceGraphic" in2="effect1_dropShadow_0_16" result="shape"/>
</filter>
<filter id="filter1_d_0_16" x="134" y="147" width="406" height="375" filterUnits="userSpaceOnUse" color-interpolation-filters="sRGB">
<feFlood flood-opacity="0" result="BackgroundImageFix"/>
<feColorMatrix in="SourceAlpha" type="matrix" values="0 0 0 0 0 0 0 0 0 0 0 0 0 0 0 0 0 0 127 0" result="hardAlpha"/>
<feOffset dx="10" dy="-10"/>
<feGaussianBlur stdDeviation="25"/>
<feComposite in2="hardAlpha" operator="out"/>
<feColorMatrix type="matrix" values="0 0 0 0 0 0 0 0 0 0 0 0 0 0 0 0 0 0 0.15 0"/>
<feBlend mode="normal" in2="BackgroundImageFix" result="effect1_dropShadow_0_16"/>
<feBlend mode="normal" in="SourceGraphic" in2="effect1_dropShadow_0_16" result="shape"/>
</filter>
<linearGradient id="paint0_linear_0_16" x1="40" y1="198" x2="270" y2="198" gradientUnits="userSpaceOnUse">
<stop stop-color="#5800FF"/>
<stop offset="0.0001" stop-color="#5800FF" stop-opacity="0.6"/>
<stop offset="1" stop-color="#5800FF" stop-opacity="0"/>
</linearGradient>
<linearGradient id="paint1_linear_0_16" x1="200.97" y1="167.144" x2="397.925" y2="164.391" gradientUnits="userSpaceOnUse">
<stop stop-color="#5800FF"/>
<stop offset="0.0001" stop-color="#5800FF" stop-opacity="0.6"/>
<stop offset="1" stop-color="#5800FF" stop-opacity="0"/>
</linearGradient>
<linearGradient id="paint2_linear_0_16" x1="174" y1="345" x2="480" y2="345" gradientUnits="userSpaceOnUse">
<stop stop-color="#B48DFF"/>
<stop offset="0.0001" stop-color="#5800FF" stop-opacity="0.6"/>
<stop offset="1" stop-color="#A676FF" stop-opacity="0.2"/>
</linearGradient>
</defs>
</svg>
